<?xml version="1.0" encoding="iso-8859-1"?>
<!-- Generator: Adobe Illustrator 19.0.0, SVG Export Plug-In . SVG Version: 6.00 Build 0)  -->
<svg xmlns="http://www.w3.org/2000/svg" xmlns:xlink="http://www.w3.org/1999/xlink" version="1.1" id="Capa_1" x="0px" y="0px" viewBox="0 0 490.193 490.193" style="enable-background:new 0 0 490.193 490.193;" xml:space="preserve" width="512px" height="512px">
<g>
	<path d="M437.444,370.093c-51.7-38.3-101.3-63.4-112.5-68.9c-1.5-0.7-2.4-2.2-2.4-3.8v-45.6c7-11.9,11.5-24.4,13.2-35.8   c5.1-0.4,11.7-7.5,18.9-32.9c9.8-34.7-0.6-39.8-9.4-39c1.7-4.8,3-9.5,3.8-14.3c15-89.9-29.3-93-29.3-93s-7.3-14.1-26.7-24.8   c-12.9-7.7-31-13.6-54.7-11.6c-7.7,0.4-15,1.9-21.8,4.2l0,0c-8.7,3-16.7,7.3-24,12.3c-8.9,5.6-17.3,12.5-24.7,20.4   c-11.7,12-22.2,27.5-26.7,46.8c-3.8,14.4-2.9,29.5,0.2,45.7l0,0c0.9,4.7,2.1,9.5,3.8,14.3c-8.8-0.8-19.3,4.3-9.4,39   c7.2,25.4,13.9,32.5,18.9,32.9c1.8,11.5,6.3,24.2,13.2,36.2v45.2c0,1.6-0.9,3.1-2.4,3.8c-11.2,5.5-60.8,30.5-112.5,68.9   c-25.7,19.1-40.7,49.5-40.7,81.5v12.3c0,14.5,11.8,26.3,26.3,26.3h176h61.1h176c14.5,0,26.3-11.8,26.3-26.3v-12.3   C478.244,419.493,463.244,389.193,437.444,370.093z" fill="#FFFFFF"/>
</g>
<g>
</g>
<g>
</g>
<g>
</g>
<g>
</g>
<g>
</g>
<g>
</g>
<g>
</g>
<g>
</g>
<g>
</g>
<g>
</g>
<g>
</g>
<g>
</g>
<g>
</g>
<g>
</g>
<g>
</g>
</svg>
